<svg width="246" height="230" viewBox="0 0 246 230" fill="none" xmlns="http://www.w3.org/2000/svg">
<path d="M179.756 304.747C185.949 310.34 192.365 315.654 198.917 320.776C187.897 317.237 176.718 314.103 165.366 311.85C179.49 320.28 194.51 327.105 209.622 333.498L217.19 336.588L224.806 339.571C227.161 340.488 229.787 339.326 230.701 336.972C231.482 334.955 230.728 332.705 229.011 331.54C224.625 328.547 220.218 325.594 215.723 322.725C204.502 315.544 193.064 308.685 181.157 302.668C179.068 301.64 176.014 300.103 173.877 299.182C175.48 300.818 178.003 303.141 179.745 304.73L179.756 304.747ZM241.801 272.553C246.823 274.098 245.763 281.465 240.476 281.48C221.752 281.183 202.992 280.199 184.58 276.468C194.457 274.589 204.42 273.608 214.424 273.039C209.227 271.102 204.077 269.057 199.042 266.859C194.667 264.939 190.335 262.94 186.074 260.621C190.895 261.028 195.615 261.751 200.325 262.529C214.24 264.941 228.251 268.513 241.801 272.553ZM239.939 206.707C245.18 205.496 247.877 212.658 243.11 215.186C223.684 225.101 203.768 234.523 182.982 241.209C192.331 234.122 202.225 227.786 212.329 221.82C203.636 223.392 194.904 224.697 186.158 225.593C183.787 225.817 180.323 226.161 177.989 226.261C180.121 225.27 183.371 224.018 185.583 223.144C203.249 216.342 221.59 211.184 239.984 206.7L239.939 206.707ZM223.464 139.843L216.952 149.6C201.58 172.194 185.631 194.698 167.977 215.562C175.395 200.756 183.631 186.387 192.208 172.224C183.372 180.968 174.355 189.519 165.13 197.772C162.598 200.023 158.852 203.314 156.289 205.414C158.213 202.677 161.265 198.74 163.296 196.051C179.853 174.598 197.916 154.112 216.349 134.228C220.214 130.191 226.489 135.162 223.492 139.848L223.464 139.843ZM147.356 167.788C143.492 177.226 139.673 186.659 135.443 195.959C137.737 185.99 140.437 176.182 143.113 166.341C149.854 141.985 157.534 117.394 165.444 93.3802L170.297 78.9072C171.015 76.7633 173.235 75.4411 175.513 75.896C177.988 76.3864 179.584 78.7888 179.08 81.2754C177.114 91.1146 175.102 100.96 172.996 110.774C166.597 140.245 159.767 169.624 151.234 198.564C153.459 177.274 156.557 156.113 160.065 135.011C155.96 146.042 151.735 157.009 147.384 167.793L147.356 167.788ZM113.905 100.566C114.073 117.075 114.133 133.536 114.04 149.882C113.895 164.742 113.761 179.619 113.237 194.497C111.767 179.678 110.689 164.858 109.599 150.022C107.048 113.214 105.17 75.6454 103.779 38.7439L103.01 16.4641C102.936 14.1338 104.655 12.0549 107.036 11.7754C109.534 11.488 111.805 13.2739 112.096 15.7735L114.741 38.2473C120.66 90.6647 126.069 143.511 129.142 196.139C123.391 164.502 118.422 132.544 113.922 100.554L113.905 100.566ZM62.9818 94.6274C68.589 113.741 74.0841 132.834 79.3418 151.797C83.8685 168.297 88.4117 184.786 92.5551 201.405C86.4788 185.393 80.7858 169.261 75.0762 153.141C61.0641 113.077 47.4559 71.9705 34.5475 31.4828L26.8273 7.03534C26.1172 4.77843 27.253 2.31912 29.4821 1.43292C31.822 0.494319 34.4829 1.64098 35.3959 3.97795C60.656 67.143 85.8653 131.964 107.874 196.309C92.349 163.067 77.441 128.806 62.9768 94.6554L62.9818 94.6274ZM85.4332 203.015C58.8333 170.177 32.5296 136.494 6.59467 102.53C18.4467 121.454 30.2341 140.496 41.3503 158.678C51.9847 176.238 62.6521 193.775 72.9607 211.536C55.6181 187.465 37.0179 160.314 20.2066 135.702C-2.06563 102.95 -26.2786 66.4882 -48.0576 33.2462L-64.8591 7.44828C-66.1624 5.43177 -65.6911 2.72212 -63.7411 1.29317C-61.7084 -0.193246 -58.8606 0.234176 -57.3724 2.26958C-48.262 14.6016 -29.9743 39.5384 -20.9466 51.9279C14.9219 101.384 51.3904 152.339 85.4282 203.043L85.4332 203.015ZM-155.869 26.0552C-81.1174 88.1233 -4.97437 152.122 67.4761 216.772C25.6504 184.717 -16.1805 151.561 -57.6606 118.063C-36.6503 137.988 -15.5452 158.192 4.32802 177.435C21.8551 194.501 39.3986 211.557 56.669 228.925C29.7694 205.995 0.399156 179.969 -26.1338 156.367C-61.3687 124.937 -99.9574 89.8469 -134.88 57.8079L-161.836 32.9276C-166.078 28.7295 -160.412 22.4835 -155.841 26.0602L-155.869 26.0552ZM-237.102 93.2438C-212.89 105.002 -150.419 135.355 -127.065 146.972C-66.6601 176.822 -4.59849 207.926 55.0146 239.284C5.74907 217.557 -44.5658 194.496 -94.7046 171.018C-71.5159 183.88 -47.8101 197.168 -25.9058 209.523C-2.63718 222.747 20.648 235.959 43.7555 249.515C19.7105 237.715 -4.1404 225.559 -27.9963 213.432C-74.1584 189.818 -124.55 163.471 -170.39 139.191L-241.221 101.362C-243.374 100.206 -244.259 97.5552 -243.169 95.3484C-242.068 93.0854 -239.337 92.1451 -237.074 93.2489L-237.102 93.2438Z" fill="url(#paint0_radial_3454_47032)" fill-opacity="0.19"/>
<defs>
<radialGradient id="paint0_radial_3454_47032" cx="0" cy="0" r="1" gradientUnits="userSpaceOnUse" gradientTransform="translate(26.2262 186.403) rotate(-117.469) scale(214.578 214.312)">
<stop offset="0.3" stop-color="#FDEE00"/>
<stop offset="0.36" stop-color="#F2EB06"/>
<stop offset="0.47" stop-color="#D5E416"/>
<stop offset="0.61" stop-color="#A6D831"/>
<stop offset="0.77" stop-color="#66C956"/>
<stop offset="0.96" stop-color="#14B585"/>
<stop offset="1" stop-color="#00B091"/>
</radialGradient>
</defs>
</svg>
